Genre:Comedie
Language:English
IMDb:http://www.imdb.com/title/tt1386604/
Source:DVD
Subtitles:Romana


Format : Matroska
File size : 1.17 GiB
Duration : 1h 28mn
Overall bit rate : 1 900 Kbps


Video
Format settings, CABAC : Yes
Format settings, ReFrames : 4 frames
Codec ID : V_MPEG4/ISO/AVC
Duration : 1h 28mn
Bit rate : 1 500 Kbps
Width : 720 pixels
Height : 384 pixels
Display aspect ratio : 1.875
Frame rate mode : Variable
Frame rate : 29.970 fps
Color space : YUV
Chroma subsampling : 4:2:0
Bit depth : 8 bits
Scan type : Progressive
Bits/(Pixel*Frame) : 0.181
Stream size : 936 MiB (78%)
Writing library : x264

Audio
ID : 2
Format : AC-3
Format/Info : Audio Coding 3
Mode extension : CM (complete main)
Codec ID : A_AC3
Duration : 1h 28mn
Bit rate mode : Constant
Bit rate : 384 Kbps
Channel(s) : 6 channels
Channel positions : Front: L C R, Side: L R, LFE
Sampling rate : 48.0 KHz
Bit depth : 16 bits
Video delay : -1mn 5s
Stream size : 243 MiB (20%)
Language : English


Plot:
Jimmy is a ten-year who lives with his father, stepmother and, most importantly, his best friend a German shepherd named Rainy. JimmyÆs father gets a promotion, which involves moving to a new home, which has no space for his beloved pet. Unwilling to let his master go without a fight, Rainy embarks on a cross-country journey to New York but navigating the Big Apple is just the beginning of his challenging adventure. Join Rainy and Jimmy in this family-friendly tale about devotion, true friendship and love
 
http://rapidhdd.com/images/266154vlcsnap-00001.png 
http://www.rapidhdd.com/images/835441vlcsnap-00002.png 
http://www.rapidhdd.com/images/611556vlcsnap-00003.png 
http://www.rapidhdd.com/images/275494vlcsnap-00005.png